<?xml version="1.0" encoding="utf-8"?>
<!-- Generator: Adobe Illustrator 28.7.4, SVG Export Plug-In . SVG Version: 9.03 Build 55973)  -->
<svg version="1.1" id="Layer_1" xmlns="http://www.w3.org/2000/svg" xmlns:xlink="http://www.w3.org/1999/xlink" x="0px" y="0px"
	 viewBox="0 0 50 50" style="enable-background:new 0 0 50 50;" xml:space="preserve">
<style type="text/css">
	.st0{fill-rule:evenodd;clip-rule:evenodd;fill:#231F20;}
	.st1{fill-rule:evenodd;clip-rule:evenodd;fill:#FFFFFF;}
</style>
<g id="XMLID_36_">
	<circle id="XMLID_10_" class="st0" cx="25" cy="25" r="25"/>
	<path id="XMLID_31_" class="st1" d="M33.81,16.69c-1.57-0.97-2.78-2.78-3.08-4.59c-0.06-0.42-0.12-0.79-0.12-1.21h-4.78v11.24v7.8
		c0,2.24-1.81,4.05-4.05,4.05c-0.73,0-1.33-0.18-1.93-0.48c-1.27-0.66-2.18-2.06-2.18-3.57c0-2.24,1.81-4.05,4.11-4.05
		c0.42,0,0.79,0.06,1.21,0.18v-3.75v-1.09c-0.42-0.06-0.79-0.12-1.21-0.12c-4.9,0-8.89,3.93-8.89,8.83c0,2.96,1.51,5.62,3.81,7.19
		c1.45,0.97,3.2,1.57,5.08,1.57c4.9,0,8.83-3.93,8.83-8.77v-9.91c1.81,1.63,4.23,2.42,6.65,2.24v-3.57v-1.21
		C36.05,17.72,34.84,17.36,33.81,16.69z"/>
</g>
</svg>
