<?xml version="1.0" encoding="utf-8"?>
<!-- Generator: Adobe Illustrator 28.7.4, SVG Export Plug-In . SVG Version: 9.03 Build 55973)  -->
<svg version="1.1" id="Layer_1" xmlns="http://www.w3.org/2000/svg" xmlns:xlink="http://www.w3.org/1999/xlink" x="0px" y="0px"
	 viewBox="0 0 50 50" style="enable-background:new 0 0 50 50;" xml:space="preserve">
<style type="text/css">
	.st0{fill-rule:evenodd;clip-rule:evenodd;fill:#231F20;}
	.st1{fill-rule:evenodd;clip-rule:evenodd;fill:#FFFFFF;}
</style>
<g id="XMLID_30_">
	<circle id="XMLID_4_" class="st0" cx="859.59" cy="378.17" r="186.67"/>
	<path id="XMLID_205_" class="st1" d="M809.57,270.4h100.04c32.14,0,58.57,26.43,58.57,58.57v99.52c0,32.14-26.43,58.57-58.57,58.57
		H809.57c-32.14,0-58.57-26.43-58.57-58.57v-99.52C751,296.83,777.44,270.4,809.57,270.4L809.57,270.4z M917.9,308.24L917.9,308.24
		c6.74,0,12.44,5.7,12.44,12.44l0,0c0,6.74-5.7,12.44-12.44,12.44l0,0c-7.26,0-12.44-5.7-12.44-12.44l0,0
		C905.46,313.94,910.65,308.24,917.9,308.24L917.9,308.24z M859.33,319.64h0.52c32.14,0,59.09,26.95,59.09,59.09l0,0
		c0,32.65-26.95,59.09-59.09,59.09h-0.52c-32.14,0-58.57-26.43-58.57-59.09l0,0C800.76,346.59,827.2,319.64,859.33,319.64
		L859.33,319.64z M859.33,339.86h0.52c21.25,0,38.87,17.62,38.87,38.87l0,0c0,21.77-17.62,39.39-38.87,39.39h-0.52
		c-21.25,0-38.87-17.62-38.87-39.39l0,0C820.46,357.48,838.08,339.86,859.33,339.86L859.33,339.86z M810.09,289.06h99
		c22.29,0,40.43,18.14,40.43,40.43v98.48c0,22.29-18.14,40.43-40.43,40.43h-99c-22.29,0-40.43-18.14-40.43-40.43v-98.48
		C769.66,307.2,787.8,289.06,810.09,289.06L810.09,289.06z"/>
</g>
<g id="XMLID_00000070083229184090656010000008937467963586114480_">
	<circle id="XMLID_00000127030640665949430990000002482309058426820786_" class="st0" cx="25" cy="25" r="25"/>
	<path id="XMLID_00000062896727700911384100000017304324672502865340_" class="st1" d="M18.3,10.57h13.4c4.3,0,7.84,3.54,7.84,7.84
		v13.33c0,4.3-3.54,7.84-7.84,7.84H18.3c-4.3,0-7.84-3.54-7.84-7.84V18.41C10.46,14.11,14,10.57,18.3,10.57L18.3,10.57z
		 M32.81,15.63L32.81,15.63c0.9,0,1.67,0.76,1.67,1.67l0,0c0,0.9-0.76,1.67-1.67,1.67l0,0c-0.97,0-1.67-0.76-1.67-1.67l0,0
		C31.14,16.4,31.84,15.63,32.81,15.63L32.81,15.63z M24.97,17.16h0.07c4.3,0,7.91,3.61,7.91,7.91l0,0c0,4.37-3.61,7.91-7.91,7.91
		h-0.07c-4.3,0-7.84-3.54-7.84-7.91l0,0C17.12,20.77,20.66,17.16,24.97,17.16L24.97,17.16z M24.97,19.87h0.07
		c2.85,0,5.21,2.36,5.21,5.21l0,0c0,2.92-2.36,5.28-5.21,5.28h-0.07c-2.85,0-5.21-2.36-5.21-5.28l0,0
		C19.76,22.23,22.12,19.87,24.97,19.87L24.97,19.87z M18.37,13.07h13.26c2.98,0,5.41,2.43,5.41,5.41v13.19
		c0,2.98-2.43,5.41-5.41,5.41H18.37c-2.98,0-5.41-2.43-5.41-5.41V18.48C12.96,15.5,15.39,13.07,18.37,13.07L18.37,13.07z"/>
</g>
</svg>
